<?xml version="1.0" encoding="utf-8"?>
<!-- Generator: Adobe Illustrator 19.0.0, SVG Export Plug-In . SVG Version: 6.00 Build 0)  -->
<svg version="1.0" id="Layer_1" xmlns="http://www.w3.org/2000/svg" xmlns:xlink="http://www.w3.org/1999/xlink" x="0px" y="0px"
	 viewBox="0 0 173.2 47" style="enable-background:new 0 0 173.2 47;" xml:space="preserve">
<style type="text/css">
	.st0{fill:#1F2933;}
	.st1{fill:#22B573;}
	.st2{fill:none;}
	.st3{fill:#FFFFFF;}
	.st4{fill:#F24444;}
</style>
<g id="XMLID_382_">
	<path id="XMLID_410_" class="st0" d="M-1189.9,107.5v-12h21c0,0-0.2,0-0.1,0c0.3-0.1,0.1-0.2,0.1-0.6V83.5h-14.5
		c-6.7,0-12.5-5-12.5-11.8V16.9c0-6.8,5.8-12.4,12.5-12.4h28.5v90.4c0,6.7-5.8,12.6-12.6,12.6H-1189.9z M-1168.9,72.5v-56h-12.9
		c-0.1,0-0.2-0.2-0.3-0.1l-0.2-0.1c-0.2,0.1-0.5,0.2-0.5,0.7v54.8c0,0.4,0.3,0.7,0.5,0.8l0.2,0c0.1,0,0.3,0,0.4,0H-1168.9z"/>
	<path id="XMLID_407_" class="st0" d="M-1140,83.5c-6.7,0-12.9-4.9-12.9-11.6V44.3c0-6.7,6.2-11.8,12.9-11.8h15.1V16.9
		c0-0.7-0.2-0.8-0.4-0.8c-0.1,0,0-0.1-0.1-0.1l-20.6,0V4.5h21.9c6.8,0,12.1,5.7,12.1,12.4v66.6H-1140z M-1138.8,72.4
		c0.1,0,0.4,0,0.4,0h13.5v-29h-13.5c-0.1,0-0.3,0.1-0.4,0.1l0.1,0c-0.2,0.1-0.3,0.4-0.3,0.7v27.5c0,0.3,0,0.5,0.3,0.6L-1138.8,72.4z
		"/>
	<path id="XMLID_406_" class="st0" d="M-1048.9,83.5v-68h-15v68h-13v-68h-15v68h-12V13.9c0-5.3,3.9-10.4,9-10.4h49.2
		c5,0,8.9,5.2,8.9,10.4v69.6H-1048.9z"/>
	<path id="XMLID_403_" class="st0" d="M-1017.2,83.5c-6.7,0-12.7-4.9-12.7-11.6V16.9c0-6.8,6-12.4,12.7-12.4h15.9
		c6.8,0,12.4,5.7,12.4,12.4v31.6h-27v23.4c0,0.3-0.1,0.5,0.1,0.6l-0.1,0c0.1,0,0.2,0,0.3,0h24.7v11H-1017.2z M-1001.9,36.5V16.9
		c0-0.7-0.4-0.8-0.5-0.8c-0.1,0-0.3-0.1-0.4-0.1l-12.9,0c-0.1,0-0.3,0.1-0.4,0.1l0.3,0c-0.2,0.1-0.1,0.4-0.1,0.8v19.6H-1001.9z"/>
	<path id="XMLID_402_" class="st0" d="M-982.9,83.5V16.9c0-6.5,5.2-11.7,12-12.3c0.8-0.1,2.1-0.1,3.9-0.1c1.8,0,3.8-0.1,5.5,0
		c1.1,0,2.1-0.1,2.7-0.1h3.8v11.2l-13.1,0.2l-0.8,0.3c-0.2,0.1-0.1,0.4-0.1,0.8v66.6H-982.9z"/>
	<rect id="XMLID_401_" x="-961.9" y="64.5" class="st0" width="13" height="19"/>
	<path id="XMLID_395_" class="st0" d="M-958.6,67.4h5.7v13h-5.7V67.4z"/>
	<path id="XMLID_389_" class="st0" d="M-899.1,13.9v66.5h-5.7V13.9c0-0.7-0.7-1.4-1.6-1.4h-20.2v68h-5.7V-20.8h5.7v29h21.8
		C-901.7,8.2-899.1,10.8-899.1,13.9z"/>
	<path id="XMLID_383_" class="st0" d="M-853.9,8.2v68.1v4.3l-20.2-0.1h-1.6c-4.7,0-8.6-4.3-8.6-9V8.2h5.7v63.2
		c0,1.9,1.3,3.9,2.9,4.4c0.6,0.1,1,0.3,1.6,0.3l14.3,0.1V8.2H-853.9z"/>
</g>
<polygon id="XMLID_31_" class="st1" points="-1279.4,2.7 -1316.9,24.3 -1316.9,68 -1279.4,89.6 -1241.9,68 -1241.9,24.3 "/>
<line id="XMLID_33_" class="st2" x1="-1333.9" y1="14.4" x2="-1225" y2="77.9"/>
<line id="XMLID_53_" class="st2" x1="-1333.9" y1="77.9" x2="-1225" y2="14.4"/>
<path id="XMLID_257_" class="st0" d="M-1279.4-17.2l-54.5,31.6v63.4l54.5,31.6l54.5-31.6V14.4L-1279.4-17.2z M-1241.9,68l-37.5,21.6
	l-37.5-21.6V24.3l37.5-21.6l16.6,9.7l-37.1,21.8v23.8l20.3,11.7l20.2-11.7l-20-11.9l37-22.1l0.5,0.3V68z"/>
<g id="XMLID_7_">
	<g id="XMLID_8_">
		<path id="XMLID_72_" class="st3" d="M52,46.3v-4.3h7.6c0,0-0.1,0,0,0c0.1,0,0-0.1,0-0.2v-4.1h-5.2c-2.4,0-4.5-1.8-4.5-4.3V13.6
			c0-2.4,2.1-4.5,4.5-4.5h10.3v32.6c0,2.4-2.1,4.5-4.5,4.5H52z M59.5,33.7V13.4h-4.7c0,0-0.1-0.1-0.1-0.1l-0.1,0
			c-0.1,0-0.2,0.1-0.2,0.2v19.8c0,0.2,0.1,0.2,0.2,0.3l0.1,0c0,0,0.1,0,0.1,0H59.5z"/>
		<path id="XMLID_69_" class="st3" d="M70,37.6c-2.4,0-4.7-1.8-4.7-4.2v-9.9c0-2.4,2.3-4.3,4.7-4.3h5.4v-5.6c0-0.2-0.1-0.3-0.1-0.3
			c0,0,0,0,0,0l-7.4,0V9.1h7.9c2.4,0,4.4,2,4.4,4.5v24H70z M70.4,33.6c0.1,0,0.1,0,0.1,0h4.9V23.2h-4.9c0,0-0.1,0-0.1,0l0,0
			c-0.1,0-0.1,0.1-0.1,0.2v9.9C70.4,33.5,70.4,33.6,70.4,33.6L70.4,33.6z"/>
		<path id="XMLID_68_" class="st3" d="M102.8,37.6V13.1h-5.4v24.5h-4.7V13.1h-5.4v24.5H83V12.5c0-1.9,1.4-3.8,3.2-3.8H104
			c1.8,0,3.2,1.9,3.2,3.8v25.1H102.8z"/>
		<path id="XMLID_65_" class="st3" d="M114.3,37.6c-2.4,0-4.6-1.8-4.6-4.2V13.6c0-2.4,2.2-4.5,4.6-4.5h5.7c2.4,0,4.5,2,4.5,4.5V25
			h-9.7v8.4c0,0.1,0,0.2,0,0.2l0,0c0.1,0,0.1,0,0.1,0h8.9v4H114.3z M119.8,20.7v-7.1c0-0.2-0.1-0.3-0.2-0.3c0,0-0.1,0-0.1,0l-4.6,0
			c0,0-0.1,0-0.1,0l0.1,0c-0.1,0,0,0.1,0,0.3v7.1H119.8z"/>
		<path id="XMLID_64_" class="st3" d="M126.6,37.6v-24c0-2.3,1.9-4.2,4.3-4.4c0.3,0,0.8,0,1.4,0c0.6,0,1.4,0,2,0c0.4,0,0.8,0,1,0
			h1.4v4l-4.7,0.1l-0.3,0.1c-0.1,0,0,0.1,0,0.3v24H126.6z"/>
		<rect id="XMLID_63_" x="134.2" y="30.8" class="st3" width="4.7" height="6.9"/>
		<path id="XMLID_42_" class="st3" d="M135.4,31.8h2.1v4.7h-2.1V31.8z"/>
		<path id="XMLID_35_" class="st3" d="M156.9,12.5v24h-2.1v-24c0-0.3-0.3-0.5-0.6-0.5H147v24.5h-2.1V0h2.1v10.5h7.9
			C156,10.5,156.9,11.4,156.9,12.5z"/>
		<path id="XMLID_14_" class="st3" d="M173.2,10.5V35v1.6l-7.3-0.1h-0.6c-1.7,0-3.1-1.6-3.1-3.3V10.5h2.1v22.8c0,0.7,0.5,1.4,1,1.6
			c0.2,0.1,0.4,0.1,0.6,0.1l5.2,0.1V10.5H173.2z"/>
	</g>
	<line id="XMLID_6_" class="st2" x1="0" y1="12.7" x2="39.3" y2="35.6"/>
	<line id="XMLID_5_" class="st2" x1="0" y1="35.6" x2="39.3" y2="12.7"/>
	<path id="XMLID_2_" class="st4" d="M19.8,1.3L0,12.7v22.9L19.8,47l19.8-11.4V12.7L19.8,1.3z M32.9,32l-13.5,7.8L5.8,32V16.3
		l13.7-7.8l6.2,3.5l-13.2,7.9v8.6l7.2,4.2l7.2-4.2l-7.3-4.3l13.2-8l0,0.1V32z"/>
</g>
</svg>
